<svg xmlns="http://www.w3.org/2000/svg" xmlns:xlink="http://www.w3.org/1999/xlink" width="46" height="21" viewBox="0 0 46 21">
  <defs>
    <clipPath id="clip-path">
      <rect id="BG_Header" width="46" height="21" transform="translate(1203 335)" fill="#9eabc5"/>
    </clipPath>
    <clipPath id="clip-path-2">
      <rect width="59.74" height="23.673" fill="none"/>
    </clipPath>
  </defs>
  <g id="Group_30504" data-name="Group 30504" transform="translate(-1203 -335)">
    <rect id="BG_Header-2" data-name="BG_Header" width="46" height="21" transform="translate(1203 335)" fill="#d5d5d5"/>
    <g id="Mask_Group_3" data-name="Mask Group 3" clip-path="url(#clip-path)">
      <g id="Repeat_Grid_44" data-name="Repeat Grid 44" transform="translate(1196.13 333.164)" clip-path="url(#clip-path-2)">
        <g transform="translate(-1200.13 -330.164)">
          <line id="Line_14" data-name="Line 14" y1="24" x2="18" transform="translate(1192.5 330.5)" fill="none" stroke="#fff" stroke-width="1"/>
        </g>
        <g transform="translate(-1197.13 -330.164)">
          <line id="Line_14-2" data-name="Line 14" y1="24" x2="18" transform="translate(1192.5 330.5)" fill="none" stroke="#fff" stroke-width="1"/>
        </g>
        <g transform="translate(-1194.13 -330.164)">
          <line id="Line_14-3" data-name="Line 14" y1="24" x2="18" transform="translate(1192.5 330.5)" fill="none" stroke="#fff" stroke-width="1"/>
        </g>
        <g transform="translate(-1191.13 -330.164)">
          <line id="Line_14-4" data-name="Line 14" y1="24" x2="18" transform="translate(1192.5 330.5)" fill="none" stroke="#fff" stroke-width="1"/>
        </g>
        <g transform="translate(-1188.13 -330.164)">
          <line id="Line_14-5" data-name="Line 14" y1="24" x2="18" transform="translate(1192.5 330.5)" fill="none" stroke="#fff" stroke-width="1"/>
        </g>
        <g transform="translate(-1185.13 -330.164)">
          <line id="Line_14-6" data-name="Line 14" y1="24" x2="18" transform="translate(1192.5 330.5)" fill="none" stroke="#fff" stroke-width="1"/>
        </g>
        <g transform="translate(-1182.13 -330.164)">
          <line id="Line_14-7" data-name="Line 14" y1="24" x2="18" transform="translate(1192.5 330.5)" fill="none" stroke="#fff" stroke-width="1"/>
        </g>
        <g transform="translate(-1179.13 -330.164)">
          <line id="Line_14-8" data-name="Line 14" y1="24" x2="18" transform="translate(1192.5 330.5)" fill="none" stroke="#fff" stroke-width="1"/>
        </g>
        <g transform="translate(-1176.13 -330.164)">
          <line id="Line_14-9" data-name="Line 14" y1="24" x2="18" transform="translate(1192.5 330.5)" fill="none" stroke="#fff" stroke-width="1"/>
        </g>
        <g transform="translate(-1173.13 -330.164)">
          <line id="Line_14-10" data-name="Line 14" y1="24" x2="18" transform="translate(1192.5 330.5)" fill="none" stroke="#fff" stroke-width="1"/>
        </g>
        <g transform="translate(-1170.13 -330.164)">
          <line id="Line_14-11" data-name="Line 14" y1="24" x2="18" transform="translate(1192.5 330.5)" fill="none" stroke="#fff" stroke-width="1"/>
        </g>
        <g transform="translate(-1167.13 -330.164)">
          <line id="Line_14-12" data-name="Line 14" y1="24" x2="18" transform="translate(1192.5 330.5)" fill="none" stroke="#fff" stroke-width="1"/>
        </g>
        <g transform="translate(-1164.13 -330.164)">
          <line id="Line_14-13" data-name="Line 14" y1="24" x2="18" transform="translate(1192.5 330.5)" fill="none" stroke="#fff" stroke-width="1"/>
        </g>
        <g transform="translate(-1161.13 -330.164)">
          <line id="Line_14-14" data-name="Line 14" y1="24" x2="18" transform="translate(1192.5 330.5)" fill="none" stroke="#fff" stroke-width="1"/>
        </g>
        <g transform="translate(-1158.13 -330.164)">
          <line id="Line_14-15" data-name="Line 14" y1="24" x2="18" transform="translate(1192.5 330.5)" fill="none" stroke="#fff" stroke-width="1"/>
        </g>
        <g transform="translate(-1155.13 -330.164)">
          <line id="Line_14-16" data-name="Line 14" y1="24" x2="18" transform="translate(1192.5 330.5)" fill="none" stroke="#fff" stroke-width="1"/>
        </g>
        <g transform="translate(-1152.13 -330.164)">
          <line id="Line_14-17" data-name="Line 14" y1="24" x2="18" transform="translate(1192.5 330.5)" fill="none" stroke="#fff" stroke-width="1"/>
        </g>
        <g transform="translate(-1149.13 -330.164)">
          <line id="Line_14-18" data-name="Line 14" y1="24" x2="18" transform="translate(1192.5 330.5)" fill="none" stroke="#fff" stroke-width="1"/>
        </g>
        <g transform="translate(-1146.13 -330.164)">
          <line id="Line_14-19" data-name="Line 14" y1="24" x2="18" transform="translate(1192.5 330.5)" fill="none" stroke="#fff" stroke-width="1"/>
        </g>
        <g transform="translate(-1143.13 -330.164)">
          <line id="Line_14-20" data-name="Line 14" y1="24" x2="18" transform="translate(1192.5 330.5)" fill="none" stroke="#fff" stroke-width="1"/>
        </g>
      </g>
    </g>
    <g id="BG_Header-3" data-name="BG_Header" transform="translate(1203 335)" fill="none" stroke="#6e717d" stroke-width="5">
      <rect width="46" height="21" stroke="none"/>
      <rect x="2.5" y="2.5" width="41" height="16" fill="none"/>
    </g>
    <rect id="BG_Header-4" data-name="BG_Header" width="26" height="3" transform="translate(1213 344)" fill="#fff"/>
  </g>
</svg>
