<svg xmlns="http://www.w3.org/2000/svg" xmlns:xlink="http://www.w3.org/1999/xlink" width="46" height="21" viewBox="0 0 46 21">
  <defs>
    <clipPath id="clip-path">
      <rect id="BG_Header" width="46" height="21" transform="translate(1203 335)" fill="#9eabc5"/>
    </clipPath>
    <clipPath id="clip-path-2">
      <rect width="59.74" height="23.673" fill="none"/>
    </clipPath>
  </defs>
  <g id="Group_30503" data-name="Group 30503" transform="translate(-1203 -438)">
    <rect id="BG_Header-2" data-name="BG_Header" width="46" height="21" transform="translate(1203 438)" fill="#d5d5d5"/>
    <g id="Mask_Group_4" data-name="Mask Group 4" transform="translate(0 103)" clip-path="url(#clip-path)">
      <g id="Repeat_Grid_45" data-name="Repeat Grid 45" transform="translate(1196.13 333.164)" clip-path="url(#clip-path-2)">
        <g transform="translate(-1200.13 -330.164)">
          <line id="Line_15" data-name="Line 15" y1="24" x2="18" transform="translate(1192.5 330.5)" fill="none" stroke="#fff" stroke-width="1"/>
        </g>
        <g transform="translate(-1197.13 -330.164)">
          <line id="Line_16" data-name="Line 16" y1="24" x2="18" transform="translate(1192.5 330.5)" fill="none" stroke="#fff" stroke-width="1"/>
        </g>
        <g transform="translate(-1194.13 -330.164)">
          <line id="Line_17" data-name="Line 17" y1="24" x2="18" transform="translate(1192.5 330.5)" fill="none" stroke="#fff" stroke-width="1"/>
        </g>
        <g transform="translate(-1191.13 -330.164)">
          <line id="Line_18" data-name="Line 18" y1="24" x2="18" transform="translate(1192.5 330.5)" fill="none" stroke="#fff" stroke-width="1"/>
        </g>
        <g transform="translate(-1188.13 -330.164)">
          <line id="Line_19" data-name="Line 19" y1="24" x2="18" transform="translate(1192.5 330.5)" fill="none" stroke="#fff" stroke-width="1"/>
        </g>
        <g transform="translate(-1185.13 -330.164)">
          <line id="Line_20" data-name="Line 20" y1="24" x2="18" transform="translate(1192.5 330.5)" fill="none" stroke="#fff" stroke-width="1"/>
        </g>
        <g transform="translate(-1182.13 -330.164)">
          <line id="Line_21" data-name="Line 21" y1="24" x2="18" transform="translate(1192.5 330.5)" fill="none" stroke="#fff" stroke-width="1"/>
        </g>
        <g transform="translate(-1179.13 -330.164)">
          <line id="Line_22" data-name="Line 22" y1="24" x2="18" transform="translate(1192.5 330.5)" fill="none" stroke="#fff" stroke-width="1"/>
        </g>
        <g transform="translate(-1176.13 -330.164)">
          <line id="Line_23" data-name="Line 23" y1="24" x2="18" transform="translate(1192.5 330.5)" fill="none" stroke="#fff" stroke-width="1"/>
        </g>
        <g transform="translate(-1173.13 -330.164)">
          <line id="Line_24" data-name="Line 24" y1="24" x2="18" transform="translate(1192.5 330.5)" fill="none" stroke="#fff" stroke-width="1"/>
        </g>
        <g transform="translate(-1170.13 -330.164)">
          <line id="Line_25" data-name="Line 25" y1="24" x2="18" transform="translate(1192.5 330.5)" fill="none" stroke="#fff" stroke-width="1"/>
        </g>
        <g transform="translate(-1167.13 -330.164)">
          <line id="Line_26" data-name="Line 26" y1="24" x2="18" transform="translate(1192.5 330.5)" fill="none" stroke="#fff" stroke-width="1"/>
        </g>
        <g transform="translate(-1164.13 -330.164)">
          <line id="Line_27" data-name="Line 27" y1="24" x2="18" transform="translate(1192.5 330.5)" fill="none" stroke="#fff" stroke-width="1"/>
        </g>
        <g transform="translate(-1161.13 -330.164)">
          <line id="Line_28" data-name="Line 28" y1="24" x2="18" transform="translate(1192.5 330.5)" fill="none" stroke="#fff" stroke-width="1"/>
        </g>
        <g transform="translate(-1158.13 -330.164)">
          <line id="Line_29" data-name="Line 29" y1="24" x2="18" transform="translate(1192.5 330.5)" fill="none" stroke="#fff" stroke-width="1"/>
        </g>
        <g transform="translate(-1155.13 -330.164)">
          <line id="Line_30" data-name="Line 30" y1="24" x2="18" transform="translate(1192.5 330.5)" fill="none" stroke="#fff" stroke-width="1"/>
        </g>
        <g transform="translate(-1152.13 -330.164)">
          <line id="Line_31" data-name="Line 31" y1="24" x2="18" transform="translate(1192.5 330.5)" fill="none" stroke="#fff" stroke-width="1"/>
        </g>
        <g transform="translate(-1149.13 -330.164)">
          <line id="Line_32" data-name="Line 32" y1="24" x2="18" transform="translate(1192.5 330.5)" fill="none" stroke="#fff" stroke-width="1"/>
        </g>
        <g transform="translate(-1146.13 -330.164)">
          <line id="Line_33" data-name="Line 33" y1="24" x2="18" transform="translate(1192.5 330.5)" fill="none" stroke="#fff" stroke-width="1"/>
        </g>
        <g transform="translate(-1143.13 -330.164)">
          <line id="Line_34" data-name="Line 34" y1="24" x2="18" transform="translate(1192.5 330.5)" fill="none" stroke="#fff" stroke-width="1"/>
        </g>
      </g>
    </g>
    <rect id="BG_Header-3" data-name="BG_Header" width="36" height="11" transform="translate(1208 443)" fill="#6e717d"/>
    <rect id="BG_Header-4" data-name="BG_Header" width="26" height="3" transform="translate(1213 447)" fill="#fff"/>
  </g>
</svg>
