<svg xmlns="http://www.w3.org/2000/svg" width="12.5" height="20" viewBox="0 0 12.5 20">
  <path id="Path_158" data-name="Path 158" d="M5.625-14a1.808,1.808,0,0,1,1.328.547A1.808,1.808,0,0,1,7.5-12.125V4.125A1.867,1.867,0,0,1,5.625,6h-8.75a1.808,1.808,0,0,1-1.328-.547A1.808,1.808,0,0,1-5,4.125v-16.25a1.808,1.808,0,0,1,.547-1.328A1.808,1.808,0,0,1-3.125-14ZM.371,4.379a1.2,1.2,0,0,0,.879.371,1.2,1.2,0,0,0,.879-.371,1.226,1.226,0,0,0,0-1.758A1.2,1.2,0,0,0,1.25,2.25a1.2,1.2,0,0,0-.879.371,1.226,1.226,0,0,0,0,1.758ZM5.625.531V-11.656a.414.414,0,0,0-.469-.469H-2.656a.414.414,0,0,0-.469.469V.531A.414.414,0,0,0-2.656,1H5.156A.414.414,0,0,0,5.625.531Z" transform="translate(5 14)" fill="#404557"/>
</svg>
