<svg xmlns="http://www.w3.org/2000/svg" width="16" height="16" viewBox="0 0 16 16">
  <path id="Path_160" data-name="Path 160" d="M-7.1-13.1-5.4-11.4A7.632,7.632,0,0,1,.25-13.75,7.7,7.7,0,0,1,5.9-11.4,7.7,7.7,0,0,1,8.25-5.75a7.819,7.819,0,0,1-.629,3.113A8.044,8.044,0,0,1,5.911-.089a8,8,0,0,1-2.565,1.71,7.856,7.856,0,0,1-3.1.629A7.745,7.745,0,0,1-5.1.185a.323.323,0,0,1-.032-.548l.645-.645a.372.372,0,0,1,.548-.032A6.028,6.028,0,0,0,.25.573,6.09,6.09,0,0,0,4.718-1.282,6.09,6.09,0,0,0,6.573-5.75a6.09,6.09,0,0,0-1.855-4.468A6.09,6.09,0,0,0,.25-12.073a6.17,6.17,0,0,0-4.484,1.839L-2.46-8.46a.344.344,0,0,1,.065.4.354.354,0,0,1-.355.242H-7.363A.342.342,0,0,1-7.75-8.2v-4.613a.354.354,0,0,1,.242-.355A.344.344,0,0,1-7.1-13.1Z" transform="translate(7.75 13.75)" fill="#404557"/>
</svg>
