<svg xmlns="http://www.w3.org/2000/svg" width="21.538" height="20" viewBox="0 0 21.538 20">
  <path id="Path_159" data-name="Path 159" d="M10.744-14a1.694,1.694,0,0,1,1.271.547,1.85,1.85,0,0,1,.524,1.328V.375A1.85,1.85,0,0,1,12.015,1.7a1.694,1.694,0,0,1-1.271.547H3.564l.6,1.875H6.855A.847.847,0,0,1,7.49,4.4a.973.973,0,0,1,0,1.328A.847.847,0,0,1,6.855,6H-3.316a.847.847,0,0,1-.636-.273.925.925,0,0,1-.262-.664A.925.925,0,0,1-3.952,4.4a.847.847,0,0,1,.636-.273H-.624l.6-1.875H-7.205A1.694,1.694,0,0,1-8.476,1.7,1.85,1.85,0,0,1-9,.375v-12.5a1.85,1.85,0,0,1,.524-1.328A1.694,1.694,0,0,1-7.205-14Zm-.6,11.25V-11.5H-6.607v8.75Z" transform="translate(9 14)" fill="#404557"/>
</svg>
