<svg xmlns="http://www.w3.org/2000/svg" width="20" height="20" viewBox="0 0 20 20"><path d="M0,0H20V20H0Z" fill="none"/><g transform="translate(1 2.001)"><path d="M15.14,6.84H12.78a1,1,0,0,0,0,2h2.36a.87.87,0,0,1,.86.87v5.13a.87.87,0,0,1-.86.87H2.86A.87.87,0,0,1,2,14.84V9.71a.87.87,0,0,1,.86-.87H5.09a1,1,0,0,0,0-2H2.86A2.87,2.87,0,0,0,0,9.71v5.13a2.87,2.87,0,0,0,2.86,2.87H15.14A2.87,2.87,0,0,0,18,14.84V9.71a2.87,2.87,0,0,0-2.86-2.87Z" fill="#fff"/><path d="M7.16,4.2,8,3.36v7.76a1,1,0,1,0,2,0V3.47l.73.73a1,1,0,1,0,1.41-1.42L9.82.46A1,1,0,0,0,9,0H9a1,1,0,0,0-.73.28L5.75,2.78A1,1,0,0,0,7.16,4.2Z" fill="#fff"/></g></svg>