<svg xmlns="http://www.w3.org/2000/svg" width="30" height="30" viewBox="0 0 30 30"><g transform="translate(-24 -19)"><path d="M0,0H30V30H0Z" transform="translate(24 19)" fill="none"/><path d="M12.375-8.625A2.066,2.066,0,0,1,13-7.107V4.857A2.134,2.134,0,0,1,10.857,7H-4.857a2.066,2.066,0,0,1-1.518-.625A2.066,2.066,0,0,1-7,4.857V-10.857a2.066,2.066,0,0,1,.625-1.518A2.067,2.067,0,0,1-4.857-13H7.107a2.066,2.066,0,0,1,1.518.625ZM.969,3.317A2.761,2.761,0,0,0,3,4.143a2.761,2.761,0,0,0,2.031-.826,2.761,2.761,0,0,0,.826-2.031A2.761,2.761,0,0,0,5.031-.746,2.761,2.761,0,0,0,3-1.571,2.761,2.761,0,0,0,.969-.746,2.761,2.761,0,0,0,.143,1.286,2.761,2.761,0,0,0,.969,3.317ZM7.286-9.473a.514.514,0,0,0-.179-.357l-.134-.134a.514.514,0,0,0-.357-.179H-3.607a.474.474,0,0,0-.536.536v4.643a.474.474,0,0,0,.536.536H6.75a.474.474,0,0,0,.536-.536Z" transform="translate(36 37)" fill="#56bbff"/></g></svg>