<svg xmlns="http://www.w3.org/2000/svg" width="16" height="16" viewBox="0 0 16 16">
  <path id="Path_160" data-name="Path 160" d="M7.6-13.1,5.9-11.4A7.632,7.632,0,0,0,.25-13.75,7.7,7.7,0,0,0-5.4-11.4,7.7,7.7,0,0,0-7.75-5.75a7.819,7.819,0,0,0,.629,3.113A8.044,8.044,0,0,0-5.411-.089a8,8,0,0,0,2.565,1.71,7.856,7.856,0,0,0,3.1.629A7.745,7.745,0,0,0,5.6.185a.323.323,0,0,0,.032-.548l-.645-.645a.372.372,0,0,0-.548-.032A6.028,6.028,0,0,1,.25.573,6.09,6.09,0,0,1-4.218-1.282,6.09,6.09,0,0,1-6.073-5.75a6.09,6.09,0,0,1,1.855-4.468A6.09,6.09,0,0,1,.25-12.073a6.17,6.17,0,0,1,4.484,1.839L2.96-8.46a.344.344,0,0,0-.065.4.354.354,0,0,0,.355.242H7.863A.342.342,0,0,0,8.25-8.2v-4.613a.354.354,0,0,0-.242-.355A.344.344,0,0,0,7.6-13.1Z" transform="translate(7.75 13.75)" fill="#404557"/>
</svg>
