<svg xmlns="http://www.w3.org/2000/svg" width="21.813" height="21.813" viewBox="0 0 21.813 21.813">
  <g id="layers" transform="translate(0 -0.009)">
    <g id="Group_30927" data-name="Group 30927" transform="translate(0 9.396)">
      <g id="Group_30926" data-name="Group 30926" transform="translate(0)">
        <path id="Path_517" data-name="Path 517" d="M21.471,206.528a.774.774,0,0,0-.068-.041l-1.548-.834L11.271,210.2a.779.779,0,0,1-.729,0l-8.584-4.545-1.548.834A.771.771,0,0,0,.131,207.6l10.776,5.7,10.776-5.7A.771.771,0,0,0,21.471,206.528Z" transform="translate(0 -205.654)" fill="#3160d8"/>
      </g>
    </g>
    <g id="Group_30929" data-name="Group 30929" transform="translate(0 14.07)">
      <g id="Group_30928" data-name="Group 30928">
        <path id="Path_518" data-name="Path 518" d="M21.733,309.2a.779.779,0,0,0-.316-.316l-1.548-.834L11.285,312.6a.779.779,0,0,1-.729,0l-8.584-4.545-1.548.834a.779.779,0,0,0,0,1.371l10.128,5.453a.779.779,0,0,0,.739,0l10.128-5.453A.779.779,0,0,0,21.733,309.2Z" transform="translate(-0.014 -308.054)" fill="#3160d8"/>
      </g>
    </g>
    <g id="Group_30931" data-name="Group 30931" transform="translate(0 0.009)">
      <g id="Group_30930" data-name="Group 30930" transform="translate(0 0)">
        <path id="Path_519" data-name="Path 519" d="M21.471,5.6a.772.772,0,0,0-.068-.041L11.276.1a.779.779,0,0,0-.739,0L.41,5.555A.771.771,0,0,0,.131,6.666l10.776,5.7,10.776-5.7A.771.771,0,0,0,21.471,5.6Z" transform="translate(0 -0.009)" fill="#3160d8"/>
      </g>
    </g>
  </g>
</svg>
