<svg xmlns="http://www.w3.org/2000/svg" width="20" height="20" viewBox="0 0 20 20">
  <g id="Group_30477" data-name="Group 30477" transform="translate(-1055 -166)">
    <path id="Path_189" data-name="Path 189" d="M-4.562-6.375-7.687-9.5a.954.954,0,0,1-.281-.7.954.954,0,0,1,.281-.7l2.813-2.812a.954.954,0,0,1,.7-.281.954.954,0,0,1,.7.281l1.063,1.063-1.937,1.938q-.188.156,0,.344l.344.344a.232.232,0,0,0,.172.063.232.232,0,0,0,.172-.062l1.938-1.937,1.375,1.375ZM7.594-10.031,6.156-8.594,2.625-12.125l1.438-1.437A1.447,1.447,0,0,1,5.125-14a1.447,1.447,0,0,1,1.063.438l1.406,1.406a1.447,1.447,0,0,1,.438,1.063A1.447,1.447,0,0,1,7.594-10.031ZM1.906-11.406,5.438-7.875-3.844,1.406-7.187,2a.635.635,0,0,1-.594-.187.635.635,0,0,1-.187-.594l.594-3.344ZM7.75-2.5a.954.954,0,0,1,.281.7.954.954,0,0,1-.281.7L4.938,1.719a.954.954,0,0,1-.7.281.954.954,0,0,1-.7-.281L.406-1.437,4.625-5.625,6-4.25,4.063-2.312q-.187.156,0,.344l.344.344q.188.188.344,0L6.688-3.562Z" transform="translate(1064.98 182)" fill="#060e2e"/>
    <rect id="Rectangle_16273" data-name="Rectangle 16273" width="20" height="20" transform="translate(1055 166)" fill="none"/>
  </g>
</svg>
