<svg xmlns="http://www.w3.org/2000/svg" width="20" height="20" viewBox="0 0 20 20">
  <g id="Group_30536" data-name="Group 30536" transform="translate(-1247 -110)">
    <g id="Group_30535" data-name="Group 30535" transform="translate(-1 1)">
      <path id="Union_12" data-name="Union 12" d="M18665,16.628V5.375a.386.386,0,0,1,.09-.239.373.373,0,0,1,.525-.052l8.252,6.753v0a.391.391,0,0,1,.137.291.377.377,0,0,1-.375.375h-5.047l-2.893,4.335a.4.4,0,0,1-.314.169A.377.377,0,0,1,18665,16.628Zm-1.912-5.3a6.374,6.374,0,1,1,8.24-3.66.377.377,0,1,1-.7-.272,5.624,5.624,0,1,0-7.27,3.229.375.375,0,0,1-.131.726A.444.444,0,0,1,18663.088,11.327Z" transform="translate(-17408.002 111)" fill="#abb1bc"/>
    </g>
    <rect id="Rectangle_16385" data-name="Rectangle 16385" width="20" height="20" transform="translate(1247 110)" fill="none"/>
  </g>
</svg>
