<svg xmlns="http://www.w3.org/2000/svg" width="42" height="44.625" viewBox="0 0 42 44.625">
  <g id="location_1_" data-name="location (1)" transform="translate(-16.996)">
    <path id="Path_199" data-name="Path 199" d="M57.4,374.428H45.836V371.62H56.482L54.8,366.473H46.763a53.05,53.05,0,0,0-6.637,7.173L38,376.573l-2.129-2.927a53.31,53.31,0,0,0-6.637-7.173H21.2L19.51,371.62H30.156v2.808H18.59L17,379.295H59Z" transform="translate(0 -334.669)" fill="#404557"/>
    <path id="Path_200" data-name="Path 200" d="M96.115,37.9C102.462,29.17,111.5,25.8,111.5,15.442a15.385,15.385,0,1,0-30.77,0C80.73,25.8,89.77,29.172,96.115,37.9Zm0-26.092a4.212,4.212,0,1,1-4.2,4.211A4.211,4.211,0,0,1,96.115,11.811Z" transform="translate(-58.119)" fill="#404557"/>
  </g>
</svg>
