<svg id="Group_30744" data-name="Group 30744" xmlns="http://www.w3.org/2000/svg" width="41.841" height="39.591" viewBox="0 0 41.841 39.591">
  <path id="Union_15" data-name="Union 15" d="M23.7,39.591a.779.779,0,0,1-.763-.8l.405-23.426a.753.753,0,0,1,.192-.491.767.767,0,0,1,1.092-.1L41.569,29.139a.783.783,0,0,1-.517,1.375l-10.518-.175-6.178,8.918a.782.782,0,0,1-.633.334ZM8.858,27.08A8.868,8.868,0,0,1,0,18.222V8.857A8.868,8.868,0,0,1,8.858,0H31.189a8.863,8.863,0,0,1,8.858,8.857v9.365a2.6,2.6,0,1,1-5.2,0V8.857A3.657,3.657,0,0,0,31.189,5.2H8.858A3.655,3.655,0,0,0,5.212,8.857v9.365a3.647,3.647,0,0,0,3.646,3.644h8.359a2.606,2.606,0,0,1,0,5.213Z" fill="#404557"/>
</svg>
